# xmcd
#
# Track frame offsets:
#	150
#	23349
#	36003
#	50889
#	61540
#	78920
#	90989
#	103734
#	117989
#	129067
#	138310
#	145436
#	164823
#	182370
#	192717
#	208074
#	219055
#	231215
#	245286
#	257620
#
# Disc length: 3685 seconds
#
# Revision: 3
# Processed by: cddbd v1.5.2PL0 Copyright (c) Steve Scherf et al.
# Submitted via: audiograbber 1.83.01
#
DISCID=0d0e6314
DTITLE=J.J. Cale - Collected [CD 2)
DYEAR=2006
DGENRE=Slow Rock
TTITLE0=Sensitive Kind
TTITLE1=Thirteen Days
TTITLE2=Mona
TTITLE3=Carry On
TTITLE4=Mama Don't
TTITLE5=If You Leave Her
TTITLE6=City Girls
TTITLE7=Don't Wait
TTITLE8=Downtown L.A.
TTITLE9=Devil In Disguise
TTITLE10=Grasshopper
TTITLE11=Money Talks
TTITLE12=Hard Times
TTITLE13=Teardrops In My Tequila
TTITLE14=Trouble In The City
TTITLE15=Change Your Mind
TTITLE16=Lady Luck
TTITLE17=Lonesome Train
TTITLE18=Jailer
TTITLE19=Borrowed Time
EXTD=
EXTT0=
EXTT1=
EXTT2=
EXTT3=
EXTT4=
EXTT5=
EXTT6=
EXTT7=
EXTT8=
EXTT9=
EXTT10=
EXTT11=
EXTT12=
EXTT13=
EXTT14=
EXTT15=
EXTT16=
EXTT17=
EXTT18=
EXTT19=
PLAYORDER=
